<svg width="233" height="91" viewBox="0 0 233 91" fill="none" xmlns="http://www.w3.org/2000/svg">
<circle cx="53.1428" cy="39.8571" r="27.8571" fill="#F5EC94"/>
<mask id="path-2-inside-1_662_628" fill="white">
<path fill-rule="evenodd" clip-rule="evenodd" d="M40.0667 73.9694C43.7679 73.9694 47.2217 72.9103 50.1415 71.0786C52.4919 72.306 55.1649 73 58 73C67.3888 73 75 65.3888 75 56C75 46.6112 67.3888 39 58 39C55.8466 39 53.7867 39.4004 51.8907 40.1308C48.647 37.5452 44.5373 36 40.0667 36C32.3482 36 25.7055 40.6062 22.7375 47.2197C20.8132 46.4334 18.7072 46 16.5 46C7.3873 46 0 53.3873 0 62.5C0 71.6127 7.3873 79 16.5 79C22.358 79 27.503 75.9472 30.4309 71.3458C33.2555 73.0129 36.5494 73.9694 40.0667 73.9694Z"/>
</mask>
<path fill-rule="evenodd" clip-rule="evenodd" d="M40.0667 73.9694C43.7679 73.9694 47.2217 72.9103 50.1415 71.0786C52.4919 72.306 55.1649 73 58 73C67.3888 73 75 65.3888 75 56C75 46.6112 67.3888 39 58 39C55.8466 39 53.7867 39.4004 51.8907 40.1308C48.647 37.5452 44.5373 36 40.0667 36C32.3482 36 25.7055 40.6062 22.7375 47.2197C20.8132 46.4334 18.7072 46 16.5 46C7.3873 46 0 53.3873 0 62.5C0 71.6127 7.3873 79 16.5 79C22.358 79 27.503 75.9472 30.4309 71.3458C33.2555 73.0129 36.5494 73.9694 40.0667 73.9694Z" fill="white"/>
<path d="M50.1415 71.0786L50.6045 70.1922L50.096 69.9266L49.6101 70.2315L50.1415 71.0786ZM51.8907 40.1308L51.2674 40.9128L51.7155 41.2699L52.2502 41.0639L51.8907 40.1308ZM22.7375 47.2197L22.3592 48.1454L23.2541 48.5111L23.6498 47.6291L22.7375 47.2197ZM30.4309 71.3458L30.9392 70.4846L30.1064 69.993L29.5873 70.8089L30.4309 71.3458ZM49.6101 70.2315C46.8448 71.9662 43.5745 72.9694 40.0667 72.9694V74.9694C43.9613 74.9694 47.5985 73.8544 50.673 71.9257L49.6101 70.2315ZM58 72C55.3299 72 52.8153 71.3467 50.6045 70.1922L49.6786 71.965C52.1684 73.2652 54.9999 74 58 74V72ZM74 56C74 64.8366 66.8366 72 58 72V74C67.9411 74 76 65.9411 76 56H74ZM58 40C66.8366 40 74 47.1634 74 56H76C76 46.0589 67.9411 38 58 38V40ZM52.2502 41.0639C54.0333 40.377 55.9714 40 58 40V38C55.7218 38 53.5401 38.4237 51.5313 39.1976L52.2502 41.0639ZM40.0667 37C44.3028 37 48.1944 38.4633 51.2674 40.9128L52.514 39.3488C49.0996 36.6272 44.7718 35 40.0667 35V37ZM23.6498 47.6291C26.4625 41.3618 32.7563 37 40.0667 37V35C31.9401 35 24.9485 39.8506 21.8252 46.8103L23.6498 47.6291ZM16.5 47C18.5753 47 20.5529 47.4073 22.3592 48.1454L23.1158 46.294C21.0734 45.4595 18.8391 45 16.5 45V47ZM1 62.5C1 53.9396 7.93959 47 16.5 47V45C6.83502 45 -1 52.835 -1 62.5H1ZM16.5 78C7.93959 78 1 71.0604 1 62.5H-1C-1 72.165 6.83502 80 16.5 80V78ZM29.5873 70.8089C26.8352 75.1341 22.0019 78 16.5 78V80C22.7141 80 28.1709 76.7604 31.2746 71.8826L29.5873 70.8089ZM40.0667 72.9694C36.7331 72.9694 33.6141 72.0633 30.9392 70.4846L29.9227 72.207C32.897 73.9625 36.3658 74.9694 40.0667 74.9694V72.9694Z" fill="black" mask="url(#path-2-inside-1_662_628)"/>
<path d="M108.656 24.666V27.4697H103.919V40.5H100.589V27.4697H95.83V24.666H108.656ZM116.809 28.4902C117.533 28.4902 118.188 28.6156 118.775 28.8662C119.37 29.1169 119.857 29.5 120.236 30.0156C120.558 30.4525 120.755 30.9036 120.827 31.3691C120.899 31.8275 120.934 32.5794 120.934 33.625V40.5H117.808V33.3779C117.808 32.7477 117.701 32.2393 117.486 31.8525C117.207 31.3083 116.677 31.0361 115.896 31.0361C115.087 31.0361 114.471 31.3083 114.049 31.8525C113.633 32.3896 113.426 33.1595 113.426 34.1621V40.5H110.375V24.7197H113.426V30.3164C113.87 29.6361 114.382 29.1634 114.962 28.8984C115.549 28.6263 116.165 28.4902 116.809 28.4902ZM128.422 31.0039C127.713 31.0039 127.161 31.2259 126.767 31.6699C126.381 32.1139 126.137 32.7155 126.037 33.4746H130.796C130.746 32.6654 130.499 32.0531 130.055 31.6377C129.618 31.2152 129.073 31.0039 128.422 31.0039ZM128.422 28.4795C129.396 28.4795 130.273 28.6621 131.054 29.0273C131.834 29.3926 132.479 29.9691 132.987 30.7568C133.446 31.4515 133.743 32.2572 133.879 33.1738C133.958 33.7109 133.99 34.4844 133.975 35.4941H125.962C126.005 36.6686 126.374 37.4922 127.068 37.9648C127.491 38.2585 127.999 38.4053 128.594 38.4053C129.224 38.4053 129.736 38.2262 130.13 37.8682C130.345 37.6748 130.534 37.4062 130.699 37.0625H133.825C133.746 37.7572 133.385 38.4626 132.74 39.1787C131.738 40.3174 130.334 40.8867 128.529 40.8867C127.04 40.8867 125.725 40.4069 124.587 39.4473C123.448 38.4876 122.879 36.9264 122.879 34.7637C122.879 32.737 123.391 31.1829 124.415 30.1016C125.446 29.0202 126.782 28.4795 128.422 28.4795ZM142.419 24.6875H153.644V27.4697H145.706V31.1113H152.656V33.8613H145.706V40.5H142.419V24.6875ZM160.874 38.3408C161.769 38.3408 162.457 38.0221 162.936 37.3848C163.416 36.7474 163.656 35.8415 163.656 34.667C163.656 33.4925 163.416 32.5902 162.936 31.96C162.457 31.3226 161.769 31.0039 160.874 31.0039C159.979 31.0039 159.288 31.3226 158.801 31.96C158.321 32.5902 158.081 33.4925 158.081 34.667C158.081 35.8415 158.321 36.7474 158.801 37.3848C159.288 38.0221 159.979 38.3408 160.874 38.3408ZM166.868 34.667C166.868 36.3857 166.374 37.8574 165.386 39.082C164.397 40.2995 162.897 40.9082 160.885 40.9082C158.872 40.9082 157.372 40.2995 156.384 39.082C155.395 37.8574 154.901 36.3857 154.901 34.667C154.901 32.9769 155.395 31.5124 156.384 30.2734C157.372 29.0345 158.872 28.415 160.885 28.415C162.897 28.415 164.397 29.0345 165.386 30.2734C166.374 31.5124 166.868 32.9769 166.868 34.667ZM175.43 28.5117C175.487 28.5117 175.533 28.5153 175.569 28.5225C175.612 28.5225 175.702 28.526 175.838 28.5332V31.6699C175.644 31.6484 175.473 31.6341 175.322 31.627C175.172 31.6198 175.05 31.6162 174.957 31.6162C173.725 31.6162 172.898 32.0173 172.475 32.8193C172.239 33.2705 172.121 33.9652 172.121 34.9033V40.5H169.038V28.791H171.96V30.832C172.432 30.0514 172.844 29.5179 173.195 29.2314C173.768 28.7516 174.513 28.5117 175.43 28.5117ZM182.262 31.0039C181.553 31.0039 181.001 31.2259 180.607 31.6699C180.221 32.1139 179.977 32.7155 179.877 33.4746H184.636C184.585 32.6654 184.338 32.0531 183.894 31.6377C183.458 31.2152 182.913 31.0039 182.262 31.0039ZM182.262 28.4795C183.236 28.4795 184.113 28.6621 184.893 29.0273C185.674 29.3926 186.319 29.9691 186.827 30.7568C187.285 31.4515 187.583 32.2572 187.719 33.1738C187.797 33.7109 187.83 34.4844 187.815 35.4941H179.802C179.845 36.6686 180.213 37.4922 180.908 37.9648C181.331 38.2585 181.839 38.4053 182.433 38.4053C183.064 38.4053 183.576 38.2262 183.97 37.8682C184.184 37.6748 184.374 37.4062 184.539 37.0625H187.665C187.586 37.7572 187.224 38.4626 186.58 39.1787C185.577 40.3174 184.174 40.8867 182.369 40.8867C180.879 40.8867 179.565 40.4069 178.427 39.4473C177.288 38.4876 176.719 36.9264 176.719 34.7637C176.719 32.737 177.231 31.1829 178.255 30.1016C179.286 29.0202 180.622 28.4795 182.262 28.4795ZM196.882 32.9912C196.824 32.5544 196.678 32.1605 196.441 31.8096C196.098 31.3369 195.564 31.1006 194.841 31.1006C193.809 31.1006 193.104 31.6126 192.724 32.6367C192.524 33.181 192.424 33.9043 192.424 34.8066C192.424 35.666 192.524 36.3571 192.724 36.8799C193.09 37.8538 193.777 38.3408 194.787 38.3408C195.503 38.3408 196.012 38.1475 196.312 37.7607C196.613 37.374 196.796 36.8727 196.86 36.2568H199.986C199.915 37.1878 199.578 38.0687 198.976 38.8994C198.017 40.2386 196.595 40.9082 194.712 40.9082C192.828 40.9082 191.443 40.3496 190.555 39.2324C189.667 38.1152 189.223 36.665 189.223 34.8818C189.223 32.8695 189.713 31.3047 190.694 30.1875C191.675 29.0703 193.029 28.5117 194.755 28.5117C196.223 28.5117 197.422 28.8411 198.353 29.5C199.292 30.1589 199.847 31.3226 200.018 32.9912H196.882ZM208.591 34.8066C208.397 34.9284 208.2 35.0286 208 35.1074C207.807 35.179 207.538 35.2471 207.194 35.3115L206.507 35.4404C205.862 35.555 205.4 35.6947 205.121 35.8594C204.648 36.1387 204.412 36.5719 204.412 37.1592C204.412 37.682 204.555 38.0615 204.842 38.2979C205.135 38.527 205.49 38.6416 205.905 38.6416C206.564 38.6416 207.169 38.4482 207.721 38.0615C208.279 37.6748 208.569 36.9694 208.591 35.9453V34.8066ZM206.732 33.3779C207.298 33.3063 207.703 33.2168 207.946 33.1094C208.383 32.9232 208.601 32.6331 208.601 32.2393C208.601 31.7594 208.433 31.43 208.097 31.251C207.767 31.0648 207.28 30.9717 206.636 30.9717C205.912 30.9717 205.4 31.1507 205.099 31.5088C204.885 31.7738 204.741 32.1318 204.67 32.583H201.716C201.78 31.5589 202.067 30.7174 202.575 30.0586C203.384 29.0273 204.774 28.5117 206.743 28.5117C208.025 28.5117 209.164 28.766 210.159 29.2744C211.155 29.7829 211.652 30.7425 211.652 32.1533V37.5244C211.652 37.8968 211.659 38.348 211.674 38.8779C211.695 39.279 211.756 39.5511 211.856 39.6943C211.957 39.8376 212.107 39.9557 212.307 40.0488V40.5H208.977C208.884 40.2637 208.82 40.0417 208.784 39.834C208.748 39.6263 208.72 39.39 208.698 39.125C208.276 39.5833 207.789 39.9736 207.237 40.2959C206.578 40.6755 205.834 40.8652 205.003 40.8652C203.943 40.8652 203.066 40.5645 202.371 39.9629C201.683 39.3542 201.34 38.4948 201.34 37.3848C201.34 35.9453 201.895 34.9033 203.005 34.2588C203.613 33.9079 204.509 33.6572 205.69 33.5068L206.732 33.3779ZM216.766 36.7617C216.83 37.306 216.97 37.6927 217.184 37.9219C217.564 38.3301 218.266 38.5342 219.29 38.5342C219.891 38.5342 220.368 38.4447 220.719 38.2656C221.077 38.0866 221.256 37.818 221.256 37.46C221.256 37.1162 221.113 36.8548 220.826 36.6758C220.54 36.4967 219.476 36.1888 217.636 35.752C216.311 35.4225 215.376 35.0107 214.832 34.5166C214.288 34.0296 214.016 33.3278 214.016 32.4111C214.016 31.3298 214.438 30.4023 215.283 29.6289C216.135 28.8483 217.331 28.458 218.871 28.458C220.332 28.458 221.521 28.7516 222.437 29.3389C223.361 29.9189 223.891 30.9251 224.027 32.3574H220.966C220.923 31.9635 220.812 31.652 220.633 31.4229C220.296 31.0075 219.723 30.7998 218.914 30.7998C218.248 30.7998 217.772 30.9036 217.485 31.1113C217.206 31.319 217.066 31.5625 217.066 31.8418C217.066 32.1927 217.217 32.4469 217.517 32.6045C217.818 32.7692 218.882 33.0521 220.708 33.4531C221.925 33.7396 222.838 34.1729 223.447 34.7529C224.049 35.3402 224.349 36.0742 224.349 36.9551C224.349 38.1152 223.916 39.0641 223.05 39.8018C222.19 40.5322 220.858 40.8975 219.054 40.8975C217.213 40.8975 215.852 40.5107 214.972 39.7373C214.098 38.9567 213.661 37.9648 213.661 36.7617H216.766ZM225.424 31.0791V28.8984H227.057V25.6328H230.086V28.8984H231.987V31.0791H230.086V37.2666C230.086 37.7464 230.147 38.0472 230.268 38.1689C230.39 38.2835 230.763 38.3408 231.386 38.3408C231.479 38.3408 231.575 38.3408 231.676 38.3408C231.783 38.3337 231.887 38.3265 231.987 38.3193V40.6074L230.537 40.6611C229.09 40.7113 228.102 40.4606 227.572 39.9092C227.228 39.5583 227.057 39.0176 227.057 38.2871V31.0791H225.424Z" fill="#60C26D"/>
<path d="M100.546 49.666L102.641 58.7324L103.092 61.2568L103.554 58.7861L105.337 49.666H108.828L110.708 58.7324L111.191 61.2568L111.675 58.8291L113.791 49.666H117.153L112.695 65.5H109.537L107.625 56.2402L107.066 53.1787L106.508 56.2402L104.596 65.5H101.523L97.0331 49.666H100.546ZM123.147 56.0039C122.438 56.0039 121.887 56.2259 121.493 56.6699C121.106 57.1139 120.863 57.7155 120.763 58.4746H125.521C125.471 57.6654 125.224 57.0531 124.78 56.6377C124.343 56.2152 123.799 56.0039 123.147 56.0039ZM123.147 53.4795C124.121 53.4795 124.999 53.6621 125.779 54.0273C126.56 54.3926 127.204 54.9691 127.713 55.7568C128.171 56.4515 128.468 57.2572 128.604 58.1738C128.683 58.7109 128.715 59.4844 128.701 60.4941H120.687C120.73 61.6686 121.099 62.4922 121.794 62.9648C122.216 63.2585 122.725 63.4053 123.319 63.4053C123.949 63.4053 124.461 63.2262 124.855 62.8682C125.07 62.6748 125.26 62.4062 125.425 62.0625H128.551C128.472 62.7572 128.11 63.4626 127.466 64.1787C126.463 65.3174 125.059 65.8867 123.255 65.8867C121.765 65.8867 120.451 65.4069 119.312 64.4473C118.174 63.4876 117.604 61.9264 117.604 59.7637C117.604 57.737 118.116 56.1829 119.141 55.1016C120.172 54.0202 121.507 53.4795 123.147 53.4795ZM137.23 59.8066C137.037 59.9284 136.84 60.0286 136.64 60.1074C136.446 60.179 136.178 60.2471 135.834 60.3115L135.146 60.4404C134.502 60.555 134.04 60.6947 133.761 60.8594C133.288 61.1387 133.052 61.5719 133.052 62.1592C133.052 62.682 133.195 63.0615 133.481 63.2979C133.775 63.527 134.129 63.6416 134.545 63.6416C135.204 63.6416 135.809 63.4482 136.36 63.0615C136.919 62.6748 137.209 61.9694 137.23 60.9453V59.8066ZM135.372 58.3779C135.938 58.3063 136.342 58.2168 136.586 58.1094C137.023 57.9232 137.241 57.6331 137.241 57.2393C137.241 56.7594 137.073 56.43 136.736 56.251C136.407 56.0648 135.92 55.9717 135.275 55.9717C134.552 55.9717 134.04 56.1507 133.739 56.5088C133.524 56.7738 133.381 57.1318 133.309 57.583H130.355C130.42 56.5589 130.706 55.7174 131.215 55.0586C132.024 54.0273 133.413 53.5117 135.383 53.5117C136.665 53.5117 137.803 53.766 138.799 54.2744C139.794 54.7829 140.292 55.7425 140.292 57.1533V62.5244C140.292 62.8968 140.299 63.348 140.313 63.8779C140.335 64.279 140.396 64.5511 140.496 64.6943C140.596 64.8376 140.747 64.9557 140.947 65.0488V65.5H137.617C137.524 65.2637 137.46 65.0417 137.424 64.834C137.388 64.6263 137.359 64.39 137.338 64.125C136.915 64.5833 136.428 64.9736 135.877 65.2959C135.218 65.6755 134.473 65.8652 133.642 65.8652C132.583 65.8652 131.705 65.5645 131.011 64.9629C130.323 64.3542 129.979 63.4948 129.979 62.3848C129.979 60.9453 130.534 59.9033 131.644 59.2588C132.253 58.9079 133.148 58.6572 134.33 58.5068L135.372 58.3779ZM141.817 56.0791V53.8984H143.45V50.6328H146.479V53.8984H148.381V56.0791H146.479V62.2666C146.479 62.7464 146.54 63.0472 146.662 63.1689C146.784 63.2835 147.156 63.3408 147.779 63.3408C147.872 63.3408 147.969 63.3408 148.069 63.3408C148.177 63.3337 148.28 63.3265 148.381 63.3193V65.6074L146.931 65.6611C145.484 65.7113 144.496 65.4606 143.966 64.9092C143.622 64.5583 143.45 64.0176 143.45 63.2871V56.0791H141.817ZM156.803 53.4902C157.526 53.4902 158.181 53.6156 158.768 53.8662C159.363 54.1169 159.85 54.5 160.229 55.0156C160.552 55.4525 160.749 55.9036 160.82 56.3691C160.892 56.8275 160.928 57.5794 160.928 58.625V65.5H157.802V58.3779C157.802 57.7477 157.694 57.2393 157.479 56.8525C157.2 56.3083 156.67 56.0361 155.89 56.0361C155.08 56.0361 154.464 56.3083 154.042 56.8525C153.627 57.3896 153.419 58.1595 153.419 59.1621V65.5H150.368V49.7197H153.419V55.3164C153.863 54.6361 154.375 54.1634 154.955 53.8984C155.542 53.6263 156.158 53.4902 156.803 53.4902ZM168.415 56.0039C167.706 56.0039 167.155 56.2259 166.761 56.6699C166.374 57.1139 166.13 57.7155 166.03 58.4746H170.789C170.739 57.6654 170.492 57.0531 170.048 56.6377C169.611 56.2152 169.067 56.0039 168.415 56.0039ZM168.415 53.4795C169.389 53.4795 170.266 53.6621 171.047 54.0273C171.827 54.3926 172.472 54.9691 172.98 55.7568C173.439 56.4515 173.736 57.2572 173.872 58.1738C173.951 58.7109 173.983 59.4844 173.969 60.4941H165.955C165.998 61.6686 166.367 62.4922 167.061 62.9648C167.484 63.2585 167.992 63.4053 168.587 63.4053C169.217 63.4053 169.729 63.2262 170.123 62.8682C170.338 62.6748 170.528 62.4062 170.692 62.0625H173.818C173.739 62.7572 173.378 63.4626 172.733 64.1787C171.731 65.3174 170.327 65.8867 168.522 65.8867C167.033 65.8867 165.719 65.4069 164.58 64.4473C163.441 63.4876 162.872 61.9264 162.872 59.7637C162.872 57.737 163.384 56.1829 164.408 55.1016C165.439 54.0202 166.775 53.4795 168.415 53.4795ZM182.401 53.5117C182.459 53.5117 182.505 53.5153 182.541 53.5225C182.584 53.5225 182.673 53.526 182.809 53.5332V56.6699C182.616 56.6484 182.444 56.6341 182.294 56.627C182.143 56.6198 182.022 56.6162 181.929 56.6162C180.697 56.6162 179.87 57.0173 179.447 57.8193C179.211 58.2705 179.093 58.9652 179.093 59.9033V65.5H176.01V53.791H178.932V55.832C179.404 55.0514 179.816 54.5179 180.167 54.2314C180.74 53.7516 181.485 53.5117 182.401 53.5117ZM194.497 59.5166H198.515L196.538 53.2861L194.497 59.5166ZM194.701 49.666H198.439L204.047 65.5H200.459L199.438 62.2451H193.605L192.51 65.5H189.051L194.701 49.666ZM213.887 59.6455C213.887 58.7432 213.679 57.9447 213.264 57.25C212.855 56.5553 212.189 56.208 211.266 56.208C210.155 56.208 209.393 56.7344 208.977 57.7871C208.763 58.3457 208.655 59.0547 208.655 59.9141C208.655 61.2747 209.017 62.2308 209.74 62.7822C210.17 63.1045 210.678 63.2656 211.266 63.2656C212.118 63.2656 212.766 62.9362 213.21 62.2773C213.661 61.6185 213.887 60.7412 213.887 59.6455ZM212.146 53.5332C213.514 53.5332 214.671 54.0381 215.616 55.0479C216.569 56.0576 217.045 57.54 217.045 59.4951C217.045 61.5576 216.579 63.1296 215.648 64.2109C214.724 65.2923 213.532 65.833 212.071 65.833C211.14 65.833 210.367 65.6003 209.751 65.1348C209.414 64.877 209.085 64.501 208.763 64.0068V70.1084H205.733V53.791H208.666V55.5205C208.995 55.012 209.346 54.611 209.719 54.3174C210.399 53.7946 211.208 53.5332 212.146 53.5332ZM227.336 59.6455C227.336 58.7432 227.128 57.9447 226.713 57.25C226.305 56.5553 225.639 56.208 224.715 56.208C223.605 56.208 222.842 56.7344 222.427 57.7871C222.212 58.3457 222.104 59.0547 222.104 59.9141C222.104 61.2747 222.466 62.2308 223.189 62.7822C223.619 63.1045 224.127 63.2656 224.715 63.2656C225.567 63.2656 226.215 62.9362 226.659 62.2773C227.11 61.6185 227.336 60.7412 227.336 59.6455ZM225.596 53.5332C226.963 53.5332 228.12 54.0381 229.065 55.0479C230.018 56.0576 230.494 57.54 230.494 59.4951C230.494 61.5576 230.029 63.1296 229.098 64.2109C228.174 65.2923 226.981 65.833 225.52 65.833C224.589 65.833 223.816 65.6003 223.2 65.1348C222.863 64.877 222.534 64.501 222.212 64.0068V70.1084H219.182V53.791H222.115V55.5205C222.445 55.012 222.795 54.611 223.168 54.3174C223.848 53.7946 224.657 53.5332 225.596 53.5332Z" fill="url(#paint0_linear_662_628)"/>
<defs>
<linearGradient id="paint0_linear_662_628" x1="164" y1="20.5" x2="164" y2="70.5" gradientUnits="userSpaceOnUse">
<stop stop-color="#9DD58C"/>
<stop offset="1" stop-color="#D3E2A0"/>
</linearGradient>
</defs>
</svg>
