<svg width="162" height="163" viewBox="0 0 162 163" fill="none" xmlns="http://www.w3.org/2000/svg">
<path d="M0 16C0 7.16344 7.16344 0 16 0H146C154.837 0 162 7.16344 162 16V147C162 155.837 154.837 163 146 163H16C7.16344 163 0 155.837 0 147V16Z" fill="#22440F"/>
<circle cx="94.1428" cy="70.8571" r="27.8571" fill="#F5EC94"/>
<mask id="path-3-inside-1_662_2036" fill="white">
<path fill-rule="evenodd" clip-rule="evenodd" d="M81.0667 104.969C84.7679 104.969 88.2217 103.91 91.1415 102.079C93.4919 103.306 96.1649 104 99 104C108.389 104 116 96.3888 116 87C116 77.6112 108.389 70 99 70C96.8466 70 94.7867 70.4004 92.8907 71.1308C89.647 68.5452 85.5373 67 81.0667 67C73.3482 67 66.7055 71.6062 63.7375 78.2197C61.8132 77.4334 59.7072 77 57.5 77C48.3873 77 41 84.3873 41 93.5C41 102.613 48.3873 110 57.5 110C63.358 110 68.503 106.947 71.4309 102.346C74.2555 104.013 77.5494 104.969 81.0667 104.969Z"/>
</mask>
<path fill-rule="evenodd" clip-rule="evenodd" d="M81.0667 104.969C84.7679 104.969 88.2217 103.91 91.1415 102.079C93.4919 103.306 96.1649 104 99 104C108.389 104 116 96.3888 116 87C116 77.6112 108.389 70 99 70C96.8466 70 94.7867 70.4004 92.8907 71.1308C89.647 68.5452 85.5373 67 81.0667 67C73.3482 67 66.7055 71.6062 63.7375 78.2197C61.8132 77.4334 59.7072 77 57.5 77C48.3873 77 41 84.3873 41 93.5C41 102.613 48.3873 110 57.5 110C63.358 110 68.503 106.947 71.4309 102.346C74.2555 104.013 77.5494 104.969 81.0667 104.969Z" fill="white"/>
<path d="M91.1415 102.079L91.6045 101.192L91.096 100.927L90.6101 101.231L91.1415 102.079ZM92.8907 71.1308L92.2674 71.9128L92.7155 72.2699L93.2502 72.0639L92.8907 71.1308ZM63.7375 78.2197L63.3592 79.1454L64.2541 79.5111L64.6498 78.6291L63.7375 78.2197ZM71.4309 102.346L71.9392 101.485L71.1064 100.993L70.5873 101.809L71.4309 102.346ZM90.6101 101.231C87.8448 102.966 84.5745 103.969 81.0667 103.969V105.969C84.9613 105.969 88.5985 104.854 91.673 102.926L90.6101 101.231ZM99 103C96.3299 103 93.8153 102.347 91.6045 101.192L90.6786 102.965C93.1684 104.265 95.9999 105 99 105V103ZM115 87C115 95.8366 107.837 103 99 103V105C108.941 105 117 96.9411 117 87H115ZM99 71C107.837 71 115 78.1634 115 87H117C117 77.0589 108.941 69 99 69V71ZM93.2502 72.0639C95.0333 71.377 96.9714 71 99 71V69C96.7218 69 94.5401 69.4237 92.5313 70.1976L93.2502 72.0639ZM81.0667 68C85.3028 68 89.1944 69.4633 92.2674 71.9128L93.514 70.3488C90.0996 67.6272 85.7718 66 81.0667 66V68ZM64.6498 78.6291C67.4625 72.3618 73.7563 68 81.0667 68V66C72.9401 66 65.9485 70.8506 62.8252 77.8103L64.6498 78.6291ZM57.5 78C59.5753 78 61.5529 78.4073 63.3592 79.1454L64.1158 77.294C62.0734 76.4595 59.8391 76 57.5 76V78ZM42 93.5C42 84.9396 48.9396 78 57.5 78V76C47.835 76 40 83.835 40 93.5H42ZM57.5 109C48.9396 109 42 102.06 42 93.5H40C40 103.165 47.835 111 57.5 111V109ZM70.5873 101.809C67.8352 106.134 63.0019 109 57.5 109V111C63.7141 111 69.1709 107.76 72.2746 102.883L70.5873 101.809ZM81.0667 103.969C77.7331 103.969 74.6141 103.063 71.9392 101.485L70.9227 103.207C73.897 104.962 77.3658 105.969 81.0667 105.969V103.969Z" fill="black" mask="url(#path-3-inside-1_662_2036)"/>
</svg>
